<svg width="77" height="74" viewBox="0 0 77 74" fill="none" xmlns="http://www.w3.org/2000/svg">
<path d="M30 38.5H47C49.2092 38.5 51 36.7092 51 34.5V18L42.5 9.5H30C27.7909 9.5 26 11.2909 26 13.5V34.5C26 36.7092 27.7909 38.5 30 38.5Z" stroke="#DA0175" stroke-width="1.5" stroke-linecap="round" stroke-linejoin="round"/>
<path d="M50.5 18.5H42V10" stroke="#DA0175" stroke-width="1.5" stroke-linecap="round" stroke-linejoin="round"/>
<path d="M6.224 68.128C5.14667 68.128 4.208 67.8987 3.408 67.44C2.608 66.9707 1.99467 66.304 1.568 65.44C1.14133 64.5653 0.928 63.536 0.928 62.352C0.928 61.1787 1.14133 60.16 1.568 59.296C1.99467 58.4213 2.608 57.7547 3.408 57.296C4.208 56.8267 5.14667 56.592 6.224 56.592C6.928 56.592 7.59467 56.704 8.224 56.928C8.85333 57.1413 9.40267 57.456 9.872 57.872C10.0747 58.032 10.176 58.2453 10.176 58.512C10.176 58.704 10.1227 58.8693 10.016 59.008C9.90933 59.136 9.78133 59.2 9.632 59.2C9.45067 59.2 9.27467 59.1307 9.104 58.992C8.592 58.608 8.12267 58.3413 7.696 58.192C7.28 58.032 6.80533 57.952 6.272 57.952C5.09867 57.952 4.19733 58.3307 3.568 59.088C2.93867 59.8453 2.624 60.9333 2.624 62.352C2.624 63.7813 2.93867 64.8747 3.568 65.632C4.19733 66.3893 5.09867 66.768 6.272 66.768C6.784 66.768 7.248 66.688 7.664 66.528C8.09067 66.368 8.57067 66.1013 9.104 65.728C9.31733 65.5893 9.49333 65.52 9.632 65.52C9.78133 65.52 9.90933 65.5893 10.016 65.728C10.1227 65.856 10.176 66.016 10.176 66.208C10.176 66.4747 10.0747 66.688 9.872 66.848C9.40267 67.264 8.85333 67.584 8.224 67.808C7.59467 68.0213 6.928 68.128 6.224 68.128ZM15.1839 68.112C14.4159 68.112 13.7385 67.9467 13.1519 67.616C12.5759 67.2853 12.1279 66.816 11.8079 66.208C11.4985 65.5893 11.3439 64.8747 11.3439 64.064C11.3439 63.2427 11.4985 62.528 11.8079 61.92C12.1279 61.3013 12.5759 60.8267 13.1519 60.496C13.7385 60.1653 14.4159 60 15.1839 60C15.9519 60 16.6239 60.1653 17.1999 60.496C17.7865 60.8267 18.2345 61.3013 18.5439 61.92C18.8639 62.528 19.0239 63.2427 19.0239 64.064C19.0239 64.8747 18.8639 65.5893 18.5439 66.208C18.2345 66.816 17.7865 67.2853 17.1999 67.616C16.6239 67.9467 15.9519 68.112 15.1839 68.112ZM15.1839 66.832C15.8985 66.832 16.4425 66.5973 16.8159 66.128C17.1999 65.6587 17.3919 64.9707 17.3919 64.064C17.3919 63.168 17.1999 62.4853 16.8159 62.016C16.4319 61.536 15.8879 61.296 15.1839 61.296C14.4799 61.296 13.9359 61.536 13.5519 62.016C13.1679 62.4853 12.9759 63.168 12.9759 64.064C12.9759 64.9707 13.1625 65.6587 13.5359 66.128C13.9199 66.5973 14.4692 66.832 15.1839 66.832ZM25.0151 60C25.6978 60 26.3005 60.1653 26.8231 60.496C27.3458 60.8267 27.7511 61.296 28.0391 61.904C28.3378 62.512 28.4871 63.2213 28.4871 64.032C28.4871 64.832 28.3378 65.5413 28.0391 66.16C27.7511 66.7787 27.3405 67.2587 26.8071 67.6C26.2845 67.9413 25.6871 68.112 25.0151 68.112C24.4285 68.112 23.9111 67.9893 23.4631 67.744C23.0151 67.488 22.6738 67.1253 22.4391 66.656V67.296C22.4391 67.5307 22.3645 67.7227 22.2151 67.872C22.0765 68.0107 21.8845 68.08 21.6391 68.08C21.3938 68.08 21.1965 68.0107 21.0471 67.872C20.8978 67.7227 20.8231 67.5307 20.8231 67.296V57.408C20.8231 57.1733 20.8978 56.9867 21.0471 56.848C21.2071 56.7093 21.4098 56.64 21.6551 56.64C21.8898 56.64 22.0765 56.7093 22.2151 56.848C22.3645 56.976 22.4391 57.152 22.4391 57.376V61.472C22.6738 61.0027 23.0151 60.64 23.4631 60.384C23.9111 60.128 24.4285 60 25.0151 60ZM24.6311 66.832C25.3245 66.832 25.8631 66.5867 26.2471 66.096C26.6418 65.6053 26.8391 64.9173 26.8391 64.032C26.8391 63.1573 26.6471 62.4853 26.2631 62.016C25.8791 61.536 25.3351 61.296 24.6311 61.296C23.9271 61.296 23.3831 61.536 22.9991 62.016C22.6258 62.496 22.4391 63.1787 22.4391 64.064C22.4391 64.9493 22.6258 65.632 22.9991 66.112C23.3831 66.592 23.9271 66.832 24.6311 66.832ZM34.3723 60.032C34.8843 60 35.1403 60.2187 35.1403 60.688C35.1403 60.9227 35.0816 61.0987 34.9643 61.216C34.8469 61.3333 34.6443 61.4027 34.3563 61.424L33.8763 61.472C33.2043 61.536 32.7029 61.7707 32.3723 62.176C32.0523 62.5813 31.8923 63.072 31.8923 63.648V67.312C31.8923 67.568 31.8176 67.76 31.6683 67.888C31.5189 68.016 31.3269 68.08 31.0923 68.08C30.8576 68.08 30.6603 68.016 30.5003 67.888C30.3509 67.76 30.2763 67.568 30.2763 67.312V60.8C30.2763 60.5547 30.3509 60.368 30.5003 60.24C30.6603 60.1013 30.8576 60.032 31.0923 60.032C31.3056 60.032 31.4816 60.1013 31.6203 60.24C31.7696 60.368 31.8443 60.5493 31.8443 60.784V61.552C32.0576 61.0827 32.3669 60.7253 32.7723 60.48C33.1776 60.2347 33.6363 60.0907 34.1483 60.048L34.3723 60.032ZM39.3688 60C40.4034 60 41.1714 60.2613 41.6728 60.784C42.1848 61.3067 42.4408 62.1013 42.4408 63.168V67.312C42.4408 67.5573 42.3714 67.7493 42.2328 67.888C42.0941 68.016 41.9021 68.08 41.6568 68.08C41.4221 68.08 41.2354 68.0107 41.0968 67.872C40.9581 67.7333 40.8888 67.5467 40.8888 67.312V66.72C40.6861 67.168 40.3821 67.5147 39.9768 67.76C39.5821 67.9947 39.1181 68.112 38.5848 68.112C38.0728 68.112 37.6034 68.0107 37.1768 67.808C36.7608 67.5947 36.4301 67.3067 36.1848 66.944C35.9394 66.5813 35.8168 66.1707 35.8168 65.712C35.8061 65.136 35.9501 64.688 36.2488 64.368C36.5474 64.0373 37.0328 63.8027 37.7048 63.664C38.3768 63.5147 39.3101 63.44 40.5048 63.44H40.8728V62.976C40.8728 62.3787 40.7501 61.9467 40.5048 61.68C40.2594 61.4133 39.8648 61.28 39.3208 61.28C38.9474 61.28 38.5954 61.328 38.2648 61.424C37.9341 61.52 37.5714 61.6587 37.1768 61.84C36.8888 62 36.6861 62.08 36.5688 62.08C36.4088 62.08 36.2754 62.0213 36.1688 61.904C36.0728 61.7867 36.0247 61.6373 36.0247 61.456C36.0247 61.296 36.0674 61.1573 36.1528 61.04C36.2488 60.912 36.3981 60.7893 36.6008 60.672C36.9741 60.4693 37.4114 60.3093 37.9128 60.192C38.4141 60.064 38.8994 60 39.3688 60ZM38.8728 66.912C39.4594 66.912 39.9394 66.7147 40.3128 66.32C40.6861 65.9147 40.8728 65.3973 40.8728 64.768V64.352H40.5848C39.7528 64.352 39.1128 64.3893 38.6648 64.464C38.2168 64.5387 37.8968 64.6667 37.7048 64.848C37.5128 65.0187 37.4168 65.2693 37.4168 65.6C37.4168 65.984 37.5554 66.2987 37.8328 66.544C38.1101 66.7893 38.4568 66.912 38.8728 66.912ZM48.8593 60C50.7259 60 51.6593 61.0507 51.6593 63.152V67.312C51.6593 67.5573 51.5846 67.7493 51.4353 67.888C51.2966 68.016 51.0993 68.08 50.8433 68.08C50.5979 68.08 50.4006 68.0107 50.2513 67.872C50.1126 67.7333 50.0433 67.5467 50.0433 67.312V63.232C50.0433 62.5707 49.9099 62.0853 49.6433 61.776C49.3873 61.4667 48.9819 61.312 48.4273 61.312C47.7766 61.312 47.2539 61.5147 46.8593 61.92C46.4646 62.3253 46.2673 62.8693 46.2673 63.552V67.312C46.2673 67.5467 46.1926 67.7333 46.0433 67.872C45.9046 68.0107 45.7126 68.08 45.4673 68.08C45.2219 68.08 45.0246 68.0107 44.8753 67.872C44.7259 67.7333 44.6513 67.5467 44.6513 67.312V60.8C44.6513 60.576 44.7259 60.3947 44.8753 60.256C45.0353 60.1067 45.2326 60.032 45.4673 60.032C45.7019 60.032 45.8886 60.1013 46.0273 60.24C46.1659 60.3787 46.2353 60.56 46.2353 60.784V61.44C46.4913 60.9707 46.8486 60.6133 47.3073 60.368C47.7659 60.1227 48.2833 60 48.8593 60ZM59.646 66.016C59.7953 66.016 59.918 66.08 60.014 66.208C60.11 66.3253 60.158 66.4747 60.158 66.656C60.158 66.8053 60.1153 66.944 60.03 67.072C59.9553 67.1893 59.822 67.312 59.63 67.44C59.3527 67.6213 59.0327 67.7707 58.67 67.888C58.3073 68.0053 57.9393 68.0747 57.566 68.096L57.486 68.704C57.6353 68.672 57.7687 68.656 57.886 68.656C58.2167 68.656 58.494 68.752 58.718 68.944C58.9527 69.136 59.07 69.408 59.07 69.76C59.07 70.1547 58.8993 70.4747 58.558 70.72C58.2167 70.976 57.7313 71.104 57.102 71.104C56.686 71.104 56.318 71.0453 55.998 70.928C55.806 70.8533 55.71 70.72 55.71 70.528C55.71 70.4 55.7527 70.2933 55.838 70.208C55.934 70.1227 56.0567 70.1013 56.206 70.144C56.526 70.2293 56.8247 70.272 57.102 70.272C57.3793 70.272 57.5927 70.2293 57.742 70.144C57.8913 70.0587 57.966 69.9307 57.966 69.76C57.966 69.632 57.9233 69.5307 57.838 69.456C57.7633 69.392 57.6513 69.36 57.502 69.36C57.3953 69.36 57.2513 69.3813 57.07 69.424C56.8887 69.4667 56.7767 69.488 56.734 69.488C56.6487 69.488 56.5687 69.456 56.494 69.392C56.43 69.3387 56.4033 69.264 56.414 69.168L56.542 68.064C55.582 67.9147 54.8193 67.488 54.254 66.784C53.6993 66.08 53.422 65.184 53.422 64.096C53.422 63.2853 53.582 62.5707 53.902 61.952C54.2327 61.3333 54.6913 60.8533 55.278 60.512C55.8647 60.1707 56.5367 60 57.294 60C57.6993 60 58.1047 60.0587 58.51 60.176C58.926 60.2933 59.294 60.4533 59.614 60.656C59.9553 60.8907 60.126 61.1627 60.126 61.472C60.126 61.6533 60.078 61.808 59.982 61.936C59.886 62.0533 59.7633 62.112 59.614 62.112C59.518 62.112 59.422 62.0907 59.326 62.048C59.23 61.9947 59.1073 61.92 58.958 61.824C58.6913 61.6533 58.4407 61.5253 58.206 61.44C57.982 61.344 57.71 61.296 57.39 61.296C56.6647 61.296 56.0993 61.5413 55.694 62.032C55.2993 62.5227 55.102 63.2053 55.102 64.08C55.102 64.9547 55.2993 65.632 55.694 66.112C56.0887 66.5813 56.6487 66.816 57.374 66.816C57.694 66.816 57.9767 66.768 58.222 66.672C58.4673 66.576 58.718 66.448 58.974 66.288C59.0913 66.2133 59.2087 66.1493 59.326 66.096C59.4433 66.0427 59.55 66.016 59.646 66.016ZM64.8844 60C65.919 60 66.687 60.2613 67.1884 60.784C67.7004 61.3067 67.9564 62.1013 67.9564 63.168V67.312C67.9564 67.5573 67.887 67.7493 67.7484 67.888C67.6097 68.016 67.4177 68.08 67.1724 68.08C66.9377 68.08 66.751 68.0107 66.6124 67.872C66.4737 67.7333 66.4044 67.5467 66.4044 67.312V66.72C66.2017 67.168 65.8977 67.5147 65.4924 67.76C65.0977 67.9947 64.6337 68.112 64.1004 68.112C63.5884 68.112 63.119 68.0107 62.6924 67.808C62.2764 67.5947 61.9457 67.3067 61.7004 66.944C61.455 66.5813 61.3324 66.1707 61.3324 65.712C61.3217 65.136 61.4657 64.688 61.7644 64.368C62.063 64.0373 62.5484 63.8027 63.2204 63.664C63.8924 63.5147 64.8257 63.44 66.0204 63.44H66.3884V62.976C66.3884 62.3787 66.2657 61.9467 66.0204 61.68C65.775 61.4133 65.3804 61.28 64.8364 61.28C64.463 61.28 64.111 61.328 63.7804 61.424C63.4497 61.52 63.087 61.6587 62.6924 61.84C62.4044 62 62.2017 62.08 62.0844 62.08C61.9244 62.08 61.791 62.0213 61.6844 61.904C61.5884 61.7867 61.5404 61.6373 61.5404 61.456C61.5404 61.296 61.583 61.1573 61.6684 61.04C61.7644 60.912 61.9137 60.7893 62.1164 60.672C62.4897 60.4693 62.927 60.3093 63.4284 60.192C63.9297 60.064 64.415 60 64.8844 60ZM64.3884 66.912C64.975 66.912 65.455 66.7147 65.8284 66.32C66.2017 65.9147 66.3884 65.3973 66.3884 64.768V64.352H66.1004C65.2684 64.352 64.6284 64.3893 64.1804 64.464C63.7324 64.5387 63.4124 64.6667 63.2204 64.848C63.0284 65.0187 62.9324 65.2693 62.9324 65.6C62.9324 65.984 63.071 66.2987 63.3484 66.544C63.6257 66.7893 63.9724 66.912 64.3884 66.912ZM72.8869 68.112C71.7989 68.112 70.9082 67.888 70.2149 67.44C70.0229 67.3227 69.8842 67.2 69.7989 67.072C69.7242 66.944 69.6869 66.8 69.6869 66.64C69.6869 66.4693 69.7349 66.3253 69.8309 66.208C69.9269 66.0907 70.0495 66.032 70.1989 66.032C70.3375 66.032 70.5562 66.1173 70.8549 66.288C71.1749 66.4587 71.4842 66.5973 71.7829 66.704C72.0922 66.8107 72.4762 66.864 72.9349 66.864C73.4469 66.864 73.8469 66.7733 74.1349 66.592C74.4229 66.4107 74.5669 66.1547 74.5669 65.824C74.5669 65.6107 74.5082 65.44 74.3909 65.312C74.2842 65.184 74.0922 65.072 73.8149 64.976C73.5375 64.8693 73.1269 64.7573 72.5829 64.64C71.6442 64.4373 70.9669 64.1653 70.5509 63.824C70.1455 63.472 69.9429 62.9973 69.9429 62.4C69.9429 61.9413 70.0762 61.5307 70.3429 61.168C70.6095 60.7947 70.9775 60.5067 71.4469 60.304C71.9162 60.1013 72.4495 60 73.0469 60C73.4735 60 73.8895 60.0587 74.2949 60.176C74.7002 60.2827 75.0575 60.4427 75.3669 60.656C75.7189 60.8907 75.8949 61.1627 75.8949 61.472C75.8949 61.6427 75.8415 61.7867 75.7349 61.904C75.6389 62.0213 75.5215 62.08 75.3829 62.08C75.2869 62.08 75.1909 62.0587 75.0949 62.016C74.9989 61.9733 74.8709 61.904 74.7109 61.808C74.4229 61.6373 74.1509 61.504 73.8949 61.408C73.6495 61.312 73.3402 61.264 72.9669 61.264C72.5189 61.264 72.1562 61.36 71.8789 61.552C71.6122 61.744 71.4789 62.0053 71.4789 62.336C71.4789 62.6347 71.6015 62.8693 71.8469 63.04C72.1029 63.2 72.5775 63.3547 73.2709 63.504C73.9855 63.6533 74.5455 63.824 74.9509 64.016C75.3562 64.208 75.6442 64.448 75.8149 64.736C75.9962 65.0133 76.0869 65.3707 76.0869 65.808C76.0869 66.5013 75.7935 67.0613 75.2069 67.488C74.6309 67.904 73.8575 68.112 72.8869 68.112Z" fill="#DA0175"/>
</svg>
