<svg width="32" height="30" viewBox="0 0 32 30" fill="none" xmlns="http://www.w3.org/2000/svg">
<g id="close">
<path id="Icon" fill-rule="evenodd" clip-rule="evenodd" d="M7.05654 6.54685C7.57724 6.06381 8.42146 6.06381 8.94216 6.54685L15.9993 13.0937L23.0565 6.54685C23.5772 6.06381 24.4215 6.06381 24.9422 6.54685C25.4629 7.0299 25.4629 7.81307 24.9422 8.29611L17.885 14.843L24.9422 21.3898C25.4629 21.8728 25.4629 22.656 24.9422 23.139C24.4215 23.6221 23.5772 23.6221 23.0565 23.139L15.9993 16.5922L8.94216 23.139C8.42146 23.6221 7.57724 23.6221 7.05654 23.139C6.53584 22.656 6.53584 21.8728 7.05654 21.3898L14.1137 14.843L7.05654 8.29611C6.53584 7.81307 6.53584 7.0299 7.05654 6.54685Z" fill="#3F3F55"/>
</g>
</svg>
