<svg width="128" height="128" viewBox="0 0 128 128" fill="none" xmlns="http://www.w3.org/2000/svg">
<path d="M63.9993 60.0006C73.5723 60.0006 81.3327 52.2403 81.3327 42.6673C81.3327 33.0944 73.5723 25.334 63.9993 25.334C54.4264 25.334 46.666 33.0944 46.666 42.6673C46.666 52.2403 54.4264 60.0006 63.9993 60.0006Z" fill="#F5BDB2" stroke="#F2D6D0" stroke-linecap="round" stroke-linejoin="round"/>
<path d="M65.3325 102.666H37.0633C30.7727 102.666 26.0786 97.121 29.2837 91.7082C33.9323 83.8575 43.9424 74.666 65.3325 74.666" fill="#F5BDB2"/>
<path d="M65.3325 102.666H37.0633C30.7727 102.666 26.0786 97.121 29.2837 91.7082C33.9323 83.8575 43.9424 74.666 65.3325 74.666" stroke="#F2D6D0" stroke-linecap="round" stroke-linejoin="round"/>
<path d="M102.667 102.667L84 84" stroke="#F2D6D0" stroke-width="1.5" stroke-linecap="round" stroke-linejoin="round"/>
<path d="M84 102.667L102.667 84" stroke="#F2D6D0" stroke-width="1.5" stroke-linecap="round" stroke-linejoin="round"/>
</svg>
